<?xml version="1.0" encoding="UTF-8" standalone="no"?>
<svg
   xmlns:dc="http://purl.org/dc/elements/1.1/"
   xmlns:cc="http://creativecommons.org/ns#"
   xmlns:rdf="http://www.w3.org/1999/02/22-rdf-syntax-ns#"
   xmlns:svg="http://www.w3.org/2000/svg"
   xmlns="http://www.w3.org/2000/svg"
   viewBox="0 0 665.33331 392"
   height="392"
   width="665.33331"
   xml:space="preserve"
   id="svg2"
   version="1.1"><metadata
     id="metadata8"><rdf:RDF><cc:Work
         rdf:about=""><dc:format>image/svg+xml</dc:format><dc:type
           rdf:resource="http://purl.org/dc/dcmitype/StillImage" /></cc:Work></rdf:RDF></metadata><defs
     id="defs6" /><g
     transform="matrix(1.3333333,0,0,-1.3333333,0,392)"
     id="g10"><g
       transform="scale(0.1)"
       id="g12"><path
         id="path14"
         style="fill:#000000;fill-opacity:1;fill-rule:nonzero;stroke:none"
         d="m 4176.27,2387.55 c 22.5,44.49 11,85.47 -35.48,121.95 -43.49,34.49 -114.46,62.98 -211.92,84.47 -207.42,46.48 -457.82,54.98 -751.7,25.99 -327.37,-32.49 -611.25,-105.46 -851.16,-219.41 l 1188.53,-334.87 c 388.34,111.46 609.25,218.41 661.73,321.87" /><path
         id="path16"
         style="fill:#000000;fill-opacity:1;fill-rule:nonzero;stroke:none"
         d="m 2452.96,2824.88 c -16.99,26.49 -55.48,48.48 -115.95,66.97 -130.95,39.49 -309.38,50.48 -535.79,32.99 -257.89,-19.99 -508.29,-74.47 -751.7,-163.44 l 801.18,-225.91 c 308.38,62.48 501.3,129.45 578.77,201.42 33.49,30.99 41.49,60.48 23.49,87.97" /><path
         id="path18"
         style="fill:#000000;fill-opacity:1;fill-rule:nonzero;stroke:none"
         d="m 4991.45,2388.05 c -18.5,-66.97 -98.47,-149.44 -239.91,-246.9 -11.49,-7.49 -22.99,-15.49 -34.98,-23.99 -181.43,-119.95 -588.27,-305.37 -1220.51,-555.78 L 17.9375,2731.91 131.391,1763.8 3448.06,252.406 c 145.95,80.469 280.89,156.438 404.34,228.91 217.42,127.45 400.34,242.403 548.78,344.864 305.88,211.41 463.32,370.35 472.81,476.31 l 117.46,1085.56" /></g></g></svg>